<svg 
 xmlns="http://www.w3.org/2000/svg"
 xmlns:xlink="http://www.w3.org/1999/xlink"
 width="1.222in" height="1.139in">
<path fill-rule="evenodd"  fill="rgb(255, 255, 255)"
 d="M16.214,0.631 L29.514,15.483 C29.514,15.483 45.800,32.075 46.615,33.002 C47.431,33.930 50.207,40.179 50.415,40.619 C50.624,41.060 53.076,45.951 53.076,45.951 C53.076,45.951 54.902,48.638 60.296,52.806 C65.690,56.974 70.177,60.804 70.177,60.804 L86.137,74.514 C86.137,74.514 88.234,76.835 86.897,78.704 C85.561,80.572 84.119,82.635 81.957,81.369 C79.795,80.104 65.996,67.659 65.996,67.659 L51.556,54.710 C51.556,54.710 51.136,53.536 46.995,53.187 C42.854,52.838 40.950,52.235 39.395,50.902 C37.840,49.569 21.961,38.647 21.154,37.953 C20.346,37.260 2.533,25.005 2.533,25.005 C2.533,25.005 -0.428,23.197 1.013,20.434 C2.454,17.672 10.513,3.296 10.513,3.296 C10.513,3.296 11.999,0.361 13.553,0.250 C15.108,0.138 16.214,0.631 16.214,0.631 ZM4.433,20.815 L40.535,47.474 C40.535,47.474 41.038,48.077 40.535,48.617 C40.031,49.157 40.004,48.992 39.395,48.617 C38.785,48.241 2.533,23.481 2.533,23.481 C2.533,23.481 0.819,22.843 2.153,21.196 C3.486,19.549 3.788,20.435 4.433,20.815 ZM7.093,15.864 L41.295,44.428 C41.295,44.428 42.109,45.085 41.675,45.570 C41.241,46.055 41.142,45.996 40.535,45.570 C39.928,45.144 4.813,18.911 4.813,18.911 C4.813,18.911 3.515,18.242 4.433,16.626 C5.351,15.010 7.093,15.864 7.093,15.864 ZM9.753,10.913 L42.435,41.000 C42.435,41.000 43.134,41.660 42.815,42.143 C42.496,42.625 42.093,42.843 41.675,42.523 C41.257,42.204 7.853,14.341 7.853,14.341 C7.853,14.341 6.258,13.293 7.473,11.675 C8.688,10.057 9.753,10.913 9.753,10.913 ZM12.033,5.962 C12.486,6.158 43.955,37.953 43.955,37.953 C43.955,37.953 44.904,39.082 44.335,39.477 C43.767,39.871 43.703,40.219 42.815,39.477 C41.927,38.734 9.753,8.628 9.753,8.628 C9.753,8.628 8.980,7.873 10.133,6.724 C11.175,5.686 11.560,5.686 12.012,5.953 C12.026,5.959 11.665,5.760 12.033,5.962 ZM14.693,1.392 C15.030,1.561 45.095,35.287 45.095,35.287 C45.095,35.287 45.376,35.651 45.095,36.049 C44.815,36.448 44.419,36.879 43.955,36.430 C43.491,35.981 12.413,4.439 12.413,4.439 C12.413,4.439 11.472,3.374 12.413,2.154 C13.355,0.934 14.357,1.224 14.693,1.392 Z"/>
</svg>